#!OML:ASF F:\VICON\USERDATA\INSTALL\rory3\rory3.ASF
:FULLY-SPECIFIED
:DEGREES
71
root 0.11316048307668938 15.136309420957266 -16.43773722947987 40.75162569722015 0.9493446229951865 -1.5883433701921257
lfemur -54.54318173520318 9.469290522940291 -19.333230242332597
ltibia 63.92588709528931
lfoot -16.289260092983966 5.650958526259947
ltoes -15.017340326541467
rfemur -67.76372269995252 -1.4228501643589122 23.39493870180814
rtibia 74.10211517850922
rfoot -26.209622768659102 -14.152625694747607
rtoes -7.846126303600341
lowerback 17.105149548956593 -0.1813368376757544 -1.3038691129769635
upperback 1.3786464613765457 -0.393998906925282 1.8591600397547738
thorax -4.055948399533084 -0.20718439452429308 2.5305811830977776
lowerneck -17.58648082879054 0.6031518305792348 -2.08392172963304
upperneck 3.5402445866675034 1.3364483730720897 -2.03218646691408
head 3.2992241095583665 0.5955052944908124 -0.09601712676839796
lclavicle 5.750028391735048e-16 -3.1224478229893247e-16
lhumerus -9.526507414577672 6.362755874791337 84.34382427333803
lradius 16.079009656948088
lwrist 2.0369459773025564
lhand -26.496109273977847 -7.32789565493078
lfingers 7.125019999999998
lthumb 0.3065260782193157 22.815248583328717
rclavicle 5.749224048514265e-16 -3.126614997144034e-16
rhumerus -19.73849862400824 -13.615057540661656 -80.78516866334891
rradius 22.747176869763294
rwrist 31.12520416496977
rhand -23.139711416968105 -26.81120284402283
rfingers 7.125019999999998
rthumb 3.2425190382342715 -56.47160566725461
72
root 0.05993836755181278 15.631419321564454 -15.579380857350483 38.18739298533055 1.4372490069579644 -1.217388451907434
lfemur -48.637665155524815 9.342320216002891 -19.14508799582977
ltibia 60.12696119007189
lfoot -13.210879815875424 2.8716625463841883
ltoes -14.046425776671537
rfemur -58.947926470876425 -2.5183312536914095 23.275355612694142
rtibia 68.34481898286086
rfoot -23.638551864260894 -12.81816107426993
rtoes -8.861951653646386
lowerback 16.931830661772995 -0.22559401147373154 -1.5582278717042617
upperback 2.207975265509147 -0.4894226736545003 1.8134085854803663
thorax -2.8557278107475486 -0.2749194357813317 2.601812876333476
lowerneck -16.771536680998516 0.5187445688310431 -2.08242601898548
upperneck 4.7488183544548015 1.1680622578747097 -1.75426033505474
head 3.440609609710351 0.5218500534892367 -0.023385289174233714
lclavicle 5.74828698648832e-16 -3.1254207958929576e-16
lhumerus -10.557536671614898 5.0345023705604115 84.36416399035136
lradius 16.26422729038892
lwrist 3.281379416116321
lhand -26.40116660889623 -7.552409659848254
lfingers 7.125019999999998
lthumb 0.3521077949232312 22.587010209292128
rclavicle 5.746597542589741e-16 -3.1306166967926794e-16
rhumerus -20.142644850748187 -13.784173795060777 -80.585789505996
rradius 22.965417886217292
rwrist 30.107012164488367
rhand -23.046207564118838 -26.502286303208535
rfingers 7.125019999999998
rthumb 3.3390973498223655 -56.14769773227185
73
root 0.017069776828881222 16.323311006694503 -14.510620310134529 33.79780213038467 1.7643548050596642 -0.3757436252161632
lfemur -40.02161371568371 9.183359358897023 -18.99294462914335
ltibia 55.62458456535773
lfoot -8.110058090573188 -0.7754270836422696
ltoes -11.295951886529396
rfemur -45.600521764200664 -4.261318542651104 22.360721962521545
rtibia 59.57723575148739
rfoot -18.952329005893677 -10.30855721309149
rtoes -8.970948368747075
lowerback 16.16460033685994 -0.2305607791826328 -1.9568676479815879
upperback 3.30303849738705 -0.5305240035536992 1.6203234569437532
thorax -1.356504846510325 -0.3236374547640626 2.6152926677689776
lowerneck -15.664070428366172 0.42041194609179955 -2.1068095534377216
upperneck 6.629458477831292 0.9776151694924482 -1.424005831619922
head 3.652951022614645 0.43291416510996844 0.07377949076884116
lclavicle 5.751692120232193e-16 -3.120692028102407e-16
lhumerus -12.065249375111513 3.255425761654905 84.30241353106047
lradius 16.803765342670435
lwrist 5.358158326306618
lhand -26.347822351743087 -7.830320347232634
lfingers 7.125019999999998
lthumb 0.35318700689039007 22.308424291636662
rclavicle 5.746107151296853e-16 -3.1313694151213883e-16
rhumerus -20.813194907347945 -13.569436142858262 -80.48330930549268
rradius 23.349445924817232
rwrist 28.698070114759243
rhand -22.74503935217899 -25.93708956920201
rfingers 7.125019999999998
rthumb 3.6309726490407686 -55.593069943004544
74
root -0.028216264376649258 17.124057005722754 -13.186476766615105 28.266891869305496 1.8792024371961573 0.48358620553819853
lfemur -31.189816583963314 9.058166884856114 -18.665653726117977
ltibia 52.03481342769936
lfoot -1.048581096991116 -3.4281870545370294
ltoes -6.423646989315338
rfemur -30.695846029785706 -5.944886364007808 20.754435032385285
rtibia 48.807975585786
rfoot -11.440124512395027 -7.0039978582223075
rtoes -6.04307282319869
lowerback 14.689649719252284 -0.1501260276714115 -2.281958014750894
upperback 4.498802018791839 -0.4275715650309435 1.3918381396891926
thorax 0.3595032545827505 -0.3060549226175635 2.515100449414497
lowerneck -14.45110639653215 0.3130278708368138 -2.133125880373962
upperneck 8.988645248974452 0.7667329293278144 -1.0672450841918222
head 3.8744463111906953 0.3325441064120211 0.18152697448023852
lclavicle 5.753088560454884e-16 -3.1191198036294436e-16
lhumerus -13.944103349683765 1.6698908326356505 84.00795186431381
lradius 17.46484845786888
lwrist 7.41567089320104
lhand -26.21335378430013 -8.05974273867448
lfingers 7.125019999999998
lthumb 0.3650780550346601 22.062371454142276
rclavicle 5.745375286007791e-16 -3.1324837778562164e-16
rhumerus -21.757049150321322 -12.881687922739612 -80.42934259453064
rradius 23.97085646009522
rwrist 27.00006256401943
rhand -22.31256270294074 -25.183673996158475
rfingers 7.125019999999998
rthumb 4.044387065586033 -54.88948631900809
